<mxfile host="app.diagrams.net" modified="2022-11-07T09:35:49.033Z" agent="5.0 (Windows NT 10.0; Win64; x64) AppleWebKit/537.36 (KHTML, like Gecko) Chrome/106.0.0.0 Safari/537.36" etag="_ZFTkItn2VyPZAGUhoGk" version="20.5.1" type="github">
  <diagram id="dAtFrbRqFhm2w0OMjDu8" name="Pagina-1">
    <mxGraphModel dx="1083" dy="207" grid="1" gridSize="10" guides="1" tooltips="1" connect="1" arrows="1" fold="1" page="1" pageScale="1" pageWidth="827" pageHeight="1169" math="0" shadow="0">
      <root>
        <mxCell id="0" />
        <mxCell id="1" parent="0" />
        <mxCell id="PEF5FeGuaxUVhhYKDudY-1" value="MVN" style="ellipse;whiteSpace=wrap;html=1;aspect=fixed;" parent="1" vertex="1">
          <mxGeometry x="270" y="180" width="160" height="160" as="geometry" />
        </mxCell>
        <mxCell id="PEF5FeGuaxUVhhYKDudY-2" value="Utente loggato" style="rounded=0;whiteSpace=wrap;html=1;" parent="1" vertex="1">
          <mxGeometry x="680" y="215" width="130" height="90" as="geometry" />
        </mxCell>
        <mxCell id="PEF5FeGuaxUVhhYKDudY-3" value="Utente generico" style="rounded=0;whiteSpace=wrap;html=1;" parent="1" vertex="1">
          <mxGeometry x="-380" y="190" width="180" height="140" as="geometry" />
        </mxCell>
        <mxCell id="PEF5FeGuaxUVhhYKDudY-4" value="Paypal" style="rounded=0;whiteSpace=wrap;html=1;" parent="1" vertex="1">
          <mxGeometry x="110" y="430" width="120" height="60" as="geometry" />
        </mxCell>
        <mxCell id="PEF5FeGuaxUVhhYKDudY-5" value="MongoDB" style="rounded=0;whiteSpace=wrap;html=1;" parent="1" vertex="1">
          <mxGeometry x="310" width="120" height="60" as="geometry" />
        </mxCell>
        <mxCell id="PEF5FeGuaxUVhhYKDudY-6" value="Servizio chat" style="rounded=0;whiteSpace=wrap;html=1;" parent="1" vertex="1">
          <mxGeometry x="500" y="460" width="120" height="60" as="geometry" />
        </mxCell>
        <mxCell id="PEF5FeGuaxUVhhYKDudY-7" value="Gmail" style="rounded=0;whiteSpace=wrap;html=1;" parent="1" vertex="1">
          <mxGeometry x="320" y="460" width="120" height="60" as="geometry" />
        </mxCell>
        <mxCell id="PEF5FeGuaxUVhhYKDudY-8" value="" style="endArrow=classic;html=1;rounded=0;" parent="1" edge="1">
          <mxGeometry width="50" height="50" relative="1" as="geometry">
            <mxPoint x="390" y="180" as="sourcePoint" />
            <mxPoint x="390" y="60" as="targetPoint" />
            <Array as="points">
              <mxPoint x="390" y="90" />
            </Array>
          </mxGeometry>
        </mxCell>
        <mxCell id="PEF5FeGuaxUVhhYKDudY-9" value="Salva dati" style="text;html=1;strokeColor=none;fillColor=none;align=center;verticalAlign=middle;whiteSpace=wrap;rounded=0;" parent="1" vertex="1">
          <mxGeometry x="400" y="80" width="60" height="30" as="geometry" />
        </mxCell>
        <mxCell id="PEF5FeGuaxUVhhYKDudY-10" value="" style="endArrow=classic;html=1;rounded=0;" parent="1" edge="1">
          <mxGeometry width="50" height="50" relative="1" as="geometry">
            <mxPoint x="340" y="60" as="sourcePoint" />
            <mxPoint x="340" y="140" as="targetPoint" />
          </mxGeometry>
        </mxCell>
        <mxCell id="PEF5FeGuaxUVhhYKDudY-11" value="Invio dati" style="text;html=1;align=center;verticalAlign=middle;resizable=0;points=[];autosize=1;strokeColor=none;fillColor=none;" parent="1" vertex="1">
          <mxGeometry x="270" y="70" width="70" height="30" as="geometry" />
        </mxCell>
        <mxCell id="PEF5FeGuaxUVhhYKDudY-13" value="" style="endArrow=classic;html=1;rounded=0;" parent="1" edge="1">
          <mxGeometry width="50" height="50" relative="1" as="geometry">
            <mxPoint x="310" y="330" as="sourcePoint" />
            <mxPoint x="190" y="430" as="targetPoint" />
            <Array as="points">
              <mxPoint x="250" y="380" />
            </Array>
          </mxGeometry>
        </mxCell>
        <mxCell id="PEF5FeGuaxUVhhYKDudY-14" value="Invio dati donazione" style="text;html=1;strokeColor=none;fillColor=none;align=center;verticalAlign=middle;whiteSpace=wrap;rounded=0;" parent="1" vertex="1">
          <mxGeometry x="160" y="380" width="60" height="30" as="geometry" />
        </mxCell>
        <mxCell id="PEF5FeGuaxUVhhYKDudY-20" value="" style="endArrow=classic;html=1;rounded=0;" parent="1" edge="1">
          <mxGeometry width="50" height="50" relative="1" as="geometry">
            <mxPoint x="440" y="350" as="sourcePoint" />
            <mxPoint x="540" y="430" as="targetPoint" />
            <Array as="points" />
          </mxGeometry>
        </mxCell>
        <mxCell id="PEF5FeGuaxUVhhYKDudY-29" value="" style="endArrow=classic;html=1;rounded=0;" parent="1" edge="1">
          <mxGeometry width="50" height="50" relative="1" as="geometry">
            <mxPoint x="402.0000000000001" y="320" as="sourcePoint" />
            <mxPoint x="402.8928571428571" y="445" as="targetPoint" />
          </mxGeometry>
        </mxCell>
        <mxCell id="Iv0paGdok0cvm0LcO6Oo-1" value="" style="endArrow=classic;html=1;rounded=0;" edge="1" parent="1">
          <mxGeometry relative="1" as="geometry">
            <mxPoint x="-140" y="160" as="sourcePoint" />
            <mxPoint x="50" y="160" as="targetPoint" />
          </mxGeometry>
        </mxCell>
        <mxCell id="Iv0paGdok0cvm0LcO6Oo-2" value="&lt;span style=&quot;font-size: 12px; background-color: rgb(248, 249, 250);&quot;&gt;Ricerca contenuti&lt;/span&gt;" style="edgeLabel;resizable=0;html=1;align=center;verticalAlign=middle;" connectable="0" vertex="1" parent="Iv0paGdok0cvm0LcO6Oo-1">
          <mxGeometry relative="1" as="geometry" />
        </mxCell>
        <mxCell id="Iv0paGdok0cvm0LcO6Oo-3" value="" style="endArrow=classic;html=1;rounded=0;" edge="1" parent="1">
          <mxGeometry relative="1" as="geometry">
            <mxPoint x="-140" y="200.0000000000001" as="sourcePoint" />
            <mxPoint x="50" y="200.0000000000001" as="targetPoint" />
          </mxGeometry>
        </mxCell>
        <mxCell id="Iv0paGdok0cvm0LcO6Oo-4" value="&lt;span style=&quot;font-size: 12px; background-color: rgb(248, 249, 250);&quot;&gt;Ricerca profilo&lt;/span&gt;" style="edgeLabel;resizable=0;html=1;align=center;verticalAlign=middle;" connectable="0" vertex="1" parent="Iv0paGdok0cvm0LcO6Oo-3">
          <mxGeometry relative="1" as="geometry">
            <mxPoint x="-5" y="1" as="offset" />
          </mxGeometry>
        </mxCell>
        <mxCell id="Iv0paGdok0cvm0LcO6Oo-5" value="" style="endArrow=classic;html=1;rounded=0;" edge="1" parent="1">
          <mxGeometry relative="1" as="geometry">
            <mxPoint x="60" y="180" as="sourcePoint" />
            <mxPoint x="-150" y="180" as="targetPoint" />
          </mxGeometry>
        </mxCell>
        <mxCell id="Iv0paGdok0cvm0LcO6Oo-6" value="&lt;span style=&quot;font-size: 12px; background-color: rgb(248, 249, 250);&quot;&gt;Risultati ricerca contenuti&lt;/span&gt;" style="edgeLabel;resizable=0;html=1;align=center;verticalAlign=middle;" connectable="0" vertex="1" parent="Iv0paGdok0cvm0LcO6Oo-5">
          <mxGeometry relative="1" as="geometry" />
        </mxCell>
        <mxCell id="Iv0paGdok0cvm0LcO6Oo-7" value="" style="endArrow=classic;html=1;rounded=0;" edge="1" parent="1">
          <mxGeometry relative="1" as="geometry">
            <mxPoint x="70.00000000000023" y="219.99999999999994" as="sourcePoint" />
            <mxPoint x="-140" y="219.99999999999994" as="targetPoint" />
          </mxGeometry>
        </mxCell>
        <mxCell id="Iv0paGdok0cvm0LcO6Oo-8" value="&lt;span style=&quot;font-size: 12px; background-color: rgb(248, 249, 250);&quot;&gt;Risultati ricerca profilo&lt;/span&gt;" style="edgeLabel;resizable=0;html=1;align=center;verticalAlign=middle;" connectable="0" vertex="1" parent="Iv0paGdok0cvm0LcO6Oo-7">
          <mxGeometry relative="1" as="geometry" />
        </mxCell>
        <mxCell id="Iv0paGdok0cvm0LcO6Oo-10" value="Richiesta invio &lt;br&gt;mail e codice" style="text;html=1;align=center;verticalAlign=middle;resizable=0;points=[];autosize=1;strokeColor=none;fillColor=none;" vertex="1" parent="1">
          <mxGeometry x="310" y="360" width="100" height="40" as="geometry" />
        </mxCell>
        <mxCell id="Iv0paGdok0cvm0LcO6Oo-13" value="Richiesta di &#xa;accesso alla chat" style="text;strokeColor=none;fillColor=none;align=left;verticalAlign=middle;spacingLeft=4;spacingRight=4;overflow=hidden;points=[[0,0.5],[1,0.5]];portConstraint=eastwest;rotatable=0;" vertex="1" parent="1">
          <mxGeometry x="510" y="350" width="130" height="50" as="geometry" />
        </mxCell>
        <mxCell id="Iv0paGdok0cvm0LcO6Oo-14" value="" style="endArrow=classic;html=1;rounded=0;" edge="1" parent="1">
          <mxGeometry relative="1" as="geometry">
            <mxPoint x="-140" y="250" as="sourcePoint" />
            <mxPoint x="50" y="250" as="targetPoint" />
          </mxGeometry>
        </mxCell>
        <mxCell id="Iv0paGdok0cvm0LcO6Oo-15" value="&lt;span style=&quot;font-size: 12px; background-color: rgb(248, 249, 250);&quot;&gt;Log in&lt;/span&gt;" style="edgeLabel;resizable=0;html=1;align=center;verticalAlign=middle;" connectable="0" vertex="1" parent="Iv0paGdok0cvm0LcO6Oo-14">
          <mxGeometry relative="1" as="geometry" />
        </mxCell>
        <mxCell id="Iv0paGdok0cvm0LcO6Oo-16" value="" style="endArrow=classic;html=1;rounded=0;" edge="1" parent="1">
          <mxGeometry relative="1" as="geometry">
            <mxPoint x="-140" y="270" as="sourcePoint" />
            <mxPoint x="50" y="270" as="targetPoint" />
          </mxGeometry>
        </mxCell>
        <mxCell id="Iv0paGdok0cvm0LcO6Oo-17" value="&lt;span style=&quot;font-size: 12px; background-color: rgb(248, 249, 250);&quot;&gt;Invio dati registrazione&lt;/span&gt;" style="edgeLabel;resizable=0;html=1;align=center;verticalAlign=middle;" connectable="0" vertex="1" parent="Iv0paGdok0cvm0LcO6Oo-16">
          <mxGeometry relative="1" as="geometry" />
        </mxCell>
        <mxCell id="Iv0paGdok0cvm0LcO6Oo-18" value="" style="endArrow=classic;html=1;rounded=0;" edge="1" parent="1">
          <mxGeometry relative="1" as="geometry">
            <mxPoint x="-139.9999999999999" y="290" as="sourcePoint" />
            <mxPoint x="50" y="290" as="targetPoint" />
          </mxGeometry>
        </mxCell>
        <mxCell id="Iv0paGdok0cvm0LcO6Oo-19" value="&lt;span style=&quot;font-size: 12px; background-color: rgb(248, 249, 250);&quot;&gt;Recupero credenziali&lt;/span&gt;" style="edgeLabel;resizable=0;html=1;align=center;verticalAlign=middle;" connectable="0" vertex="1" parent="Iv0paGdok0cvm0LcO6Oo-18">
          <mxGeometry relative="1" as="geometry" />
        </mxCell>
      </root>
    </mxGraphModel>
  </diagram>
</mxfile>
